<svg width="72" height="21" viewBox="0 0 72 21" fill="none" xmlns="http://www.w3.org/2000/svg">
<path d="M5.87988 12.3154H3.7793V17H1.14258V4.20312H5.89746C7.40918 4.20312 8.5752 4.54004 9.39551 5.21387C10.2158 5.8877 10.626 6.83984 10.626 8.07031C10.626 8.94336 10.4355 9.67285 10.0547 10.2588C9.67969 10.8389 9.1084 11.3018 8.34082 11.6475L11.1094 16.877V17H8.2793L5.87988 12.3154ZM3.7793 10.1797H5.90625C6.56836 10.1797 7.08105 10.0127 7.44434 9.67871C7.80762 9.33887 7.98926 8.87305 7.98926 8.28125C7.98926 7.67773 7.81641 7.20312 7.4707 6.85742C7.13086 6.51172 6.60645 6.33887 5.89746 6.33887H3.7793V10.1797Z" fill="white"/>
<path d="M5.87988 12.3154L6.10239 12.2015L6.03272 12.0654H5.87988V12.3154ZM3.7793 12.3154V12.0654H3.5293V12.3154H3.7793ZM3.7793 17V17.25H4.0293V17H3.7793ZM1.14258 17H0.892578V17.25H1.14258V17ZM1.14258 4.20312V3.95312H0.892578V4.20312H1.14258ZM10.0547 10.2588L9.84508 10.1225L9.84474 10.1231L10.0547 10.2588ZM8.34082 11.6475L8.23816 11.4195L7.9952 11.5289L8.11987 11.7644L8.34082 11.6475ZM11.1094 16.877H11.3594V16.8149L11.3303 16.76L11.1094 16.877ZM11.1094 17V17.25H11.3594V17H11.1094ZM8.2793 17L8.05679 17.114L8.12646 17.25H8.2793V17ZM3.7793 10.1797H3.5293V10.4297H3.7793V10.1797ZM7.44434 9.67871L7.61354 9.86276L7.61513 9.86128L7.44434 9.67871ZM7.4707 6.85742L7.29242 7.03269L7.29393 7.0342L7.4707 6.85742ZM3.7793 6.33887V6.08887H3.5293V6.33887H3.7793ZM5.87988 12.0654H3.7793V12.5654H5.87988V12.0654ZM3.5293 12.3154V17H4.0293V12.3154H3.5293ZM3.7793 16.75H1.14258V17.25H3.7793V16.75ZM1.39258 17V4.20312H0.892578V17H1.39258ZM1.14258 4.45312H5.89746V3.95312H1.14258V4.45312ZM5.89746 4.45312C7.37537 4.45312 8.47684 4.78278 9.23682 5.40705L9.55419 5.02069C8.67355 4.2973 7.44299 3.95312 5.89746 3.95312V4.45312ZM9.23682 5.40705C9.98977 6.02554 10.376 6.90135 10.376 8.07031H10.876C10.876 6.77834 10.4419 5.74985 9.55419 5.02069L9.23682 5.40705ZM10.376 8.07031C10.376 8.90704 10.1937 9.5862 9.84508 10.1225L10.2643 10.395C10.6774 9.7595 10.876 8.97968 10.876 8.07031H10.376ZM9.84474 10.1231C9.50109 10.6546 8.97151 11.0892 8.23816 11.4195L8.44348 11.8754C9.24529 11.5143 9.85829 11.0231 10.2646 10.3945L9.84474 10.1231ZM8.11987 11.7644L10.8884 16.9939L11.3303 16.76L8.56177 11.5305L8.11987 11.7644ZM10.8594 16.877V17H11.3594V16.877H10.8594ZM11.1094 16.75H8.2793V17.25H11.1094V16.75ZM8.50181 16.886L6.10239 12.2015L5.65737 12.4294L8.05679 17.114L8.50181 16.886ZM3.7793 10.4297H5.90625V9.92969H3.7793V10.4297ZM5.90625 10.4297C6.60923 10.4297 7.19025 10.2519 7.61354 9.86275L7.27514 9.49467C6.97186 9.77349 6.52749 9.92969 5.90625 9.92969V10.4297ZM7.61513 9.86128C8.03847 9.46525 8.23926 8.92801 8.23926 8.28125H7.73926C7.73926 8.81809 7.57676 9.21249 7.27355 9.49614L7.61513 9.86128ZM8.23926 8.28125C8.23926 7.62792 8.05056 7.08373 7.64748 6.68064L7.29393 7.0342C7.58225 7.32252 7.73926 7.72755 7.73926 8.28125H8.23926ZM7.64898 6.68216C7.24411 6.27031 6.64246 6.08887 5.89746 6.08887V6.58887C6.57043 6.58887 7.0176 6.75313 7.29242 7.03268L7.64898 6.68216ZM5.89746 6.08887H3.7793V6.58887H5.89746V6.08887ZM3.5293 6.33887V10.1797H4.0293V6.33887H3.5293Z" fill="black"/>
<path d="M18.0645 4.20312H21.1406V12.9834C21.1406 13.7979 20.9502 14.5244 20.5693 15.1631C20.1943 15.8018 19.667 16.2969 18.9873 16.6484C18.3135 17 17.5605 17.1758 16.7285 17.1758C15.334 17.1758 14.25 16.8242 13.4766 16.1211C12.7031 15.418 12.3164 14.4219 12.3164 13.1328H15.4102C15.4102 13.7188 15.5098 14.1436 15.709 14.4072C15.9141 14.6709 16.2539 14.8027 16.7285 14.8027C17.1562 14.8027 17.4844 14.6445 17.7129 14.3281C17.9473 14.0059 18.0645 13.5576 18.0645 12.9834V4.20312Z" fill="#FFFF05"/>
<path d="M18.0645 4.20312V3.95312H17.8145V4.20312H18.0645ZM21.1406 4.20312H21.3906V3.95312H21.1406V4.20312ZM20.5693 15.1631L20.3546 15.035L20.3538 15.0365L20.5693 15.1631ZM18.9873 16.6484L18.8724 16.4264L18.8717 16.4268L18.9873 16.6484ZM12.3164 13.1328V12.8828H12.0664V13.1328H12.3164ZM15.4102 13.1328H15.6602V12.8828H15.4102V13.1328ZM15.709 14.4072L15.5095 14.558L15.5116 14.5607L15.709 14.4072ZM17.7129 14.3281L17.5107 14.1811L17.5102 14.1818L17.7129 14.3281ZM18.0645 4.45312H21.1406V3.95312H18.0645V4.45312ZM20.8906 4.20312V12.9834H21.3906V4.20312H20.8906ZM20.8906 12.9834C20.8906 13.7572 20.7102 14.4387 20.3546 15.035L20.7841 15.2911C21.1902 14.6101 21.3906 13.8385 21.3906 12.9834H20.8906ZM20.3538 15.0365C20.0035 15.6331 19.5117 16.0957 18.8724 16.4264L19.1022 16.8705C19.8223 16.498 20.3852 15.9704 20.7849 15.2897L20.3538 15.0365ZM18.8717 16.4268C18.2368 16.758 17.5242 16.9258 16.7285 16.9258V17.4258C17.5969 17.4258 18.3901 17.242 19.1029 16.8701L18.8717 16.4268ZM16.7285 16.9258C15.375 16.9258 14.3586 16.5851 13.6447 15.9361L13.3084 16.3061C14.1414 17.0634 15.293 17.4258 16.7285 17.4258V16.9258ZM13.6447 15.9361C12.9352 15.2911 12.5664 14.3691 12.5664 13.1328H12.0664C12.0664 14.4746 12.471 15.5448 13.3084 16.3061L13.6447 15.9361ZM12.3164 13.3828H15.4102V12.8828H12.3164V13.3828ZM15.1602 13.1328C15.1602 13.7359 15.2605 14.2284 15.5095 14.5579L15.9085 14.2565C15.759 14.0587 15.6602 13.7016 15.6602 13.1328H15.1602ZM15.5116 14.5607C15.7817 14.9079 16.2109 15.0527 16.7285 15.0527V14.5527C16.2969 14.5527 16.0464 14.4339 15.9063 14.2537L15.5116 14.5607ZM16.7285 15.0527C17.2276 15.0527 17.635 14.8629 17.9156 14.4745L17.5102 14.1818C17.3337 14.4261 17.0849 14.5527 16.7285 14.5527V15.0527ZM17.9151 14.4752C18.1915 14.095 18.3145 13.588 18.3145 12.9834H17.8145C17.8145 13.5272 17.703 13.9167 17.5107 14.1811L17.9151 14.4752ZM18.3145 12.9834V4.20312H17.8145V12.9834H18.3145Z" fill="black"/>
<path d="M29.7441 11.8496L28.4082 11.041C27.5703 10.5312 26.9727 10.0303 26.6152 9.53809C26.2637 9.04004 26.0879 8.46875 26.0879 7.82422C26.0879 6.85742 26.4219 6.07227 27.0898 5.46875C27.7637 4.86523 28.6367 4.56348 29.709 4.56348C30.7344 4.56348 31.6748 4.85059 32.5303 5.4248V7.41992C31.6455 6.57031 30.6934 6.14551 29.6738 6.14551C29.0996 6.14551 28.6279 6.28027 28.2588 6.5498C27.8896 6.81348 27.7051 7.15332 27.7051 7.56934C27.7051 7.93848 27.8398 8.28418 28.1094 8.60645C28.3789 8.92871 28.8154 9.26562 29.4189 9.61719L30.7637 10.4082C32.2637 11.2988 33.0137 12.4355 33.0137 13.8184C33.0137 14.8027 32.6826 15.6025 32.0205 16.2178C31.3643 16.833 30.5088 17.1406 29.4541 17.1406C28.2412 17.1406 27.1367 16.7686 26.1406 16.0244V13.792C27.0898 14.9932 28.1885 15.5938 29.4365 15.5938C29.9873 15.5938 30.4443 15.4414 30.8076 15.1367C31.1768 14.8262 31.3613 14.4395 31.3613 13.9766C31.3613 13.2266 30.8223 12.5176 29.7441 11.8496ZM33.5938 10.1973L36.5996 7.24414V8.91406H39.1572V10.3555H36.5996V14.3193C36.5996 15.2451 36.9834 15.708 37.751 15.708C38.3252 15.708 38.9316 15.5146 39.5703 15.1279V16.6221C38.9551 16.9678 38.2842 17.1406 37.5576 17.1406C36.8252 17.1406 36.2158 16.9268 35.7295 16.499C35.5771 16.3701 35.4512 16.2266 35.3516 16.0684C35.252 15.9043 35.167 15.6934 35.0967 15.4355C35.0322 15.1719 35 14.6738 35 13.9414V10.3555H33.5938V10.1973ZM45.8721 17V15.9717C45.5322 16.3408 45.1426 16.6279 44.7031 16.833C44.2695 17.0381 43.8359 17.1406 43.4023 17.1406C42.8926 17.1406 42.4209 17.0146 41.9873 16.7627C41.5596 16.5049 41.2344 16.1592 41.0117 15.7256C40.7949 15.2861 40.6865 14.5596 40.6865 13.5459V8.91406H42.2861V13.5283C42.2861 14.3779 42.4062 14.9727 42.6465 15.3125C42.8926 15.6465 43.3203 15.8135 43.9297 15.8135C44.6914 15.8135 45.3389 15.4414 45.8721 14.6973V8.91406H47.4717V17H45.8721ZM55.1182 4.72168H56.7266V17H53.3076C52.1123 17 51.1572 16.6221 50.4424 15.8662C49.7334 15.1104 49.3789 14.0967 49.3789 12.8252C49.3789 11.6357 49.751 10.6572 50.4951 9.88965C51.2451 9.12207 52.2002 8.73828 53.3604 8.73828C53.8994 8.73828 54.4854 8.85254 55.1182 9.08105V4.72168ZM55.1182 15.6289V10.5049C54.6201 10.2529 54.1162 10.127 53.6064 10.127C52.8096 10.127 52.1738 10.3877 51.6992 10.9092C51.2305 11.4307 50.9961 12.1338 50.9961 13.0186C50.9961 13.8506 51.2012 14.4922 51.6113 14.9434C51.8574 15.2129 52.1182 15.3945 52.3936 15.4883C52.6689 15.582 53.1641 15.6289 53.8789 15.6289H55.1182ZM59.7236 5.5127C59.9873 5.5127 60.2129 5.60352 60.4004 5.78516C60.5879 5.9668 60.6816 6.18945 60.6816 6.45312C60.6816 6.71094 60.5879 6.93359 60.4004 7.12109C60.2129 7.30859 59.9873 7.40234 59.7236 7.40234C59.4775 7.40234 59.2607 7.30859 59.0732 7.12109C58.8857 6.92773 58.792 6.70508 58.792 6.45312C58.792 6.20703 58.8857 5.99023 59.0732 5.80273C59.2607 5.60938 59.4775 5.5127 59.7236 5.5127ZM58.9326 8.91406H60.5322V17H58.9326V8.91406ZM66.7197 8.89648C67.9502 8.89648 68.9727 9.29492 69.7871 10.0918C70.6016 10.8828 71.0088 11.8789 71.0088 13.0801C71.0088 14.2461 70.5957 15.2158 69.7695 15.9893C68.9434 16.7568 67.9033 17.1406 66.6494 17.1406C65.4365 17.1406 64.4229 16.751 63.6084 15.9717C62.7939 15.1865 62.3867 14.208 62.3867 13.0361C62.3867 11.8525 62.7969 10.8682 63.6172 10.083C64.4434 9.29199 65.4775 8.89648 66.7197 8.89648ZM66.6318 10.3379C65.8643 10.3379 65.2344 10.5898 64.7422 11.0938C64.25 11.5977 64.0039 12.2393 64.0039 13.0186C64.0039 13.792 64.2559 14.4248 64.7598 14.917C65.2637 15.4033 65.9111 15.6465 66.7021 15.6465C67.4873 15.6465 68.1289 15.4004 68.627 14.9082C69.1309 14.4102 69.3828 13.7744 69.3828 13.001C69.3828 12.2334 69.1221 11.5977 68.6006 11.0938C68.0791 10.5898 67.4229 10.3379 66.6318 10.3379Z" fill="white"/>
<path d="M29.7441 11.8496L29.8758 11.6371L29.8736 11.6357L29.7441 11.8496ZM28.4082 11.041L28.2783 11.2546L28.2788 11.2549L28.4082 11.041ZM26.6152 9.53809L26.411 9.68227L26.4129 9.68499L26.6152 9.53809ZM27.0898 5.46875L26.923 5.28252L26.9222 5.28325L27.0898 5.46875ZM32.5303 5.4248H32.7803V5.29152L32.6696 5.21723L32.5303 5.4248ZM32.5303 7.41992L32.3571 7.60024L32.7803 8.00659V7.41992H32.5303ZM28.2588 6.5498L28.4041 6.75325L28.4062 6.75171L28.2588 6.5498ZM29.4189 9.61719L29.5457 9.4017L29.5448 9.40117L29.4189 9.61719ZM30.7637 10.4082L30.8913 10.1932L30.8904 10.1927L30.7637 10.4082ZM32.0205 16.2178L31.8503 16.0346L31.8495 16.0354L32.0205 16.2178ZM26.1406 16.0244H25.8906V16.1497L25.991 16.2247L26.1406 16.0244ZM26.1406 13.792L26.3368 13.637L25.8906 13.0724V13.792H26.1406ZM30.8076 15.1367L30.9683 15.3283L30.9686 15.328L30.8076 15.1367ZM29.8736 11.6357L28.5377 10.8271L28.2788 11.2549L29.6147 12.0635L29.8736 11.6357ZM28.5381 10.8274C27.7133 10.3256 27.1472 9.84516 26.8175 9.39119L26.4129 9.68499C26.7981 10.2154 27.4273 10.7369 28.2783 11.2546L28.5381 10.8274ZM26.8195 9.39392C26.4994 8.94054 26.3379 8.42025 26.3379 7.82422H25.8379C25.8379 8.51725 26.0279 9.13954 26.411 9.68226L26.8195 9.39392ZM26.3379 7.82422C26.3379 6.92225 26.6461 6.20656 27.2574 5.65425L26.9222 5.28325C26.1976 5.93797 25.8379 6.7926 25.8379 7.82422H26.3379ZM27.2566 5.65498C27.8764 5.09992 28.6862 4.81348 29.709 4.81348V4.31348C28.5872 4.31348 27.651 4.63055 26.9231 5.28252L27.2566 5.65498ZM29.709 4.81348C30.6845 4.81348 31.5765 5.08568 32.3909 5.63238L32.6696 5.21723C31.7731 4.6155 30.7843 4.31348 29.709 4.31348V4.81348ZM32.2803 5.4248V7.41992H32.7803V5.4248H32.2803ZM32.7034 7.2396C31.7822 6.35493 30.7706 5.89551 29.6738 5.89551V6.39551C30.6161 6.39551 31.5089 6.78569 32.3571 7.60024L32.7034 7.2396ZM29.6738 5.89551C29.0603 5.89551 28.5332 6.03989 28.1114 6.3479L28.4062 6.75171C28.7227 6.52065 29.1389 6.39551 29.6738 6.39551V5.89551ZM28.1135 6.34637C27.6856 6.65202 27.4551 7.06442 27.4551 7.56934H27.9551C27.9551 7.24222 28.0937 6.97494 28.4041 6.75324L28.1135 6.34637ZM27.4551 7.56934C27.4551 8.00516 27.616 8.40617 27.9176 8.76683L28.3011 8.44606C28.0637 8.16219 27.9551 7.87179 27.9551 7.56934H27.4551ZM27.9176 8.76683C28.214 9.12122 28.6789 9.4754 29.2931 9.83321L29.5448 9.40117C28.952 9.05585 28.5438 8.7362 28.3011 8.44606L27.9176 8.76683ZM29.2922 9.83267L30.6369 10.6237L30.8904 10.1927L29.5457 9.4017L29.2922 9.83267ZM30.636 10.6232C32.0831 11.4824 32.7637 12.5475 32.7637 13.8184H33.2637C33.2637 12.3236 32.4443 11.1153 30.8913 10.1932L30.636 10.6232ZM32.7637 13.8184C32.7637 14.7402 32.4567 15.4712 31.8503 16.0346L32.1907 16.4009C32.9085 15.7339 33.2637 14.8653 33.2637 13.8184H32.7637ZM31.8495 16.0354C31.2475 16.5998 30.457 16.8906 29.4541 16.8906V17.3906C30.5606 17.3906 31.481 17.0662 32.1915 16.4002L31.8495 16.0354ZM29.4541 16.8906C28.2966 16.8906 27.2443 16.5369 26.2902 15.8241L25.991 16.2247C27.0291 17.0002 28.1858 17.3906 29.4541 17.3906V16.8906ZM26.3906 16.0244V13.792H25.8906V16.0244H26.3906ZM25.9445 13.947C26.9292 15.1931 28.0947 15.8438 29.4365 15.8438V15.3438C28.2823 15.3438 27.2505 14.7932 26.3368 13.637L25.9445 13.947ZM29.4365 15.8438C30.0361 15.8438 30.5529 15.6767 30.9683 15.3283L30.647 14.9452C30.3358 15.2061 29.9386 15.3438 29.4365 15.3438V15.8438ZM30.9686 15.328C31.3914 14.9723 31.6113 14.5167 31.6113 13.9766H31.1113C31.1113 14.3622 30.9621 14.6801 30.6467 14.9454L30.9686 15.328ZM31.6113 13.9766C31.6113 13.0929 30.9757 12.3186 29.8758 11.6371L29.6125 12.0621C30.6688 12.7166 31.1113 13.3602 31.1113 13.9766H31.6113ZM33.5938 10.1973L33.4185 10.0189L33.3438 10.0924V10.1973H33.5938ZM36.5996 7.24414H36.8496V6.64806L36.4244 7.06581L36.5996 7.24414ZM36.5996 8.91406H36.3496V9.16406H36.5996V8.91406ZM39.1572 8.91406H39.4072V8.66406H39.1572V8.91406ZM39.1572 10.3555V10.6055H39.4072V10.3555H39.1572ZM36.5996 10.3555V10.1055H36.3496V10.3555H36.5996ZM39.5703 15.1279H39.8203V14.6843L39.4408 14.9141L39.5703 15.1279ZM39.5703 16.6221L39.6928 16.84L39.8203 16.7684V16.6221H39.5703ZM35.7295 16.499L35.8946 16.3113L35.891 16.3082L35.7295 16.499ZM35.3516 16.0684L35.1378 16.1981L35.14 16.2016L35.3516 16.0684ZM35.0967 15.4355L34.8537 15.4949L34.8555 15.5013L35.0967 15.4355ZM35 10.3555H35.25V10.1055H35V10.3555ZM33.5938 10.3555H33.3438V10.6055H33.5938V10.3555ZM33.769 10.3756L36.7748 7.42247L36.4244 7.06581L33.4185 10.0189L33.769 10.3756ZM36.3496 7.24414V8.91406H36.8496V7.24414H36.3496ZM36.5996 9.16406H39.1572V8.66406H36.5996V9.16406ZM38.9072 8.91406V10.3555H39.4072V8.91406H38.9072ZM39.1572 10.1055H36.5996V10.6055H39.1572V10.1055ZM36.3496 10.3555V14.3193H36.8496V10.3555H36.3496ZM36.3496 14.3193C36.3496 14.8105 36.4505 15.2255 36.695 15.5204C36.947 15.8243 37.315 15.958 37.751 15.958V15.458C37.4193 15.458 37.2117 15.3603 37.0799 15.2013C36.9406 15.0333 36.8496 14.7539 36.8496 14.3193H36.3496ZM37.751 15.958C38.3826 15.958 39.0336 15.7452 39.6998 15.3418L39.4408 14.9141C38.8297 15.2841 38.2678 15.458 37.751 15.458V15.958ZM39.3203 15.1279V16.6221H39.8203V15.1279H39.3203ZM39.4478 16.4041C38.8711 16.7282 38.2426 16.8906 37.5576 16.8906V17.3906C38.3258 17.3906 39.039 17.2074 39.6928 16.84L39.4478 16.4041ZM37.5576 16.8906C36.8775 16.8906 36.3293 16.6936 35.8946 16.3113L35.5644 16.6867C36.1024 17.1599 36.7729 17.3906 37.5576 17.3906V16.8906ZM35.891 16.3082C35.7569 16.1947 35.6482 16.0703 35.5631 15.9352L35.14 16.2016C35.2541 16.3828 35.3974 16.5455 35.568 16.6899L35.891 16.3082ZM35.5653 15.9386C35.4815 15.8006 35.4043 15.6132 35.3379 15.3698L34.8555 15.5013C34.9297 15.7735 35.0225 16.008 35.1379 16.1981L35.5653 15.9386ZM35.3395 15.3762C35.2832 15.1458 35.25 14.6766 35.25 13.9414H34.75C34.75 14.671 34.7812 15.1979 34.8538 15.4949L35.3395 15.3762ZM35.25 13.9414V10.3555H34.75V13.9414H35.25ZM35 10.1055H33.5938V10.6055H35V10.1055ZM33.8438 10.3555V10.1973H33.3438V10.3555H33.8438ZM45.8721 17H45.6221V17.25H45.8721V17ZM45.8721 15.9717H46.1221V15.331L45.6881 15.8024L45.8721 15.9717ZM44.7031 16.833L44.5974 16.6065L44.5962 16.607L44.7031 16.833ZM41.9873 16.7627L41.8582 16.9768L41.8617 16.9789L41.9873 16.7627ZM41.0117 15.7256L40.7875 15.8362L40.7893 15.8398L41.0117 15.7256ZM40.6865 8.91406V8.66406H40.4365V8.91406H40.6865ZM42.2861 8.91406H42.5361V8.66406H42.2861V8.91406ZM42.6465 15.3125L42.4423 15.4568L42.4452 15.4608L42.6465 15.3125ZM45.8721 14.6973L46.0753 14.8429L46.1221 14.7776V14.6973H45.8721ZM45.8721 8.91406V8.66406H45.6221V8.91406H45.8721ZM47.4717 8.91406H47.7217V8.66406H47.4717V8.91406ZM47.4717 17V17.25H47.7217V17H47.4717ZM46.1221 17V15.9717H45.6221V17H46.1221ZM45.6881 15.8024C45.3696 16.1483 45.0063 16.4157 44.5974 16.6065L44.8088 17.0596C45.2789 16.8402 45.6948 16.5333 46.056 16.141L45.6881 15.8024ZM44.5962 16.607C44.1925 16.798 43.7952 16.8906 43.4023 16.8906V17.3906C43.8767 17.3906 44.3466 17.2782 44.81 17.059L44.5962 16.607ZM43.4023 16.8906C42.9359 16.8906 42.5077 16.7759 42.1129 16.5465L41.8617 16.9789C42.3341 17.2534 42.8492 17.3906 43.4023 17.3906V16.8906ZM42.1164 16.5486C41.7274 16.3141 41.435 16.0026 41.2341 15.6114L40.7893 15.8398C41.0338 16.3158 41.3918 16.6956 41.8582 16.9768L42.1164 16.5486ZM41.2359 15.615C41.0462 15.2305 40.9365 14.5537 40.9365 13.5459H40.4365C40.4365 14.5654 40.5436 15.3418 40.7875 15.8362L41.2359 15.615ZM40.9365 13.5459V8.91406H40.4365V13.5459H40.9365ZM40.6865 9.16406H42.2861V8.66406H40.6865V9.16406ZM42.0361 8.91406V13.5283H42.5361V8.91406H42.0361ZM42.0361 13.5283C42.0361 14.3853 42.1542 15.0491 42.4423 15.4568L42.8506 15.1682C42.6583 14.8962 42.5361 14.3705 42.5361 13.5283H42.0361ZM42.4452 15.4608C42.7576 15.8847 43.2799 16.0635 43.9297 16.0635V15.5635C43.3607 15.5635 43.0276 15.4082 42.8477 15.1642L42.4452 15.4608ZM43.9297 16.0635C44.7888 16.0635 45.5059 15.6376 46.0753 14.8429L45.6689 14.5517C45.1719 15.2453 44.594 15.5635 43.9297 15.5635V16.0635ZM46.1221 14.6973V8.91406H45.6221V14.6973H46.1221ZM45.8721 9.16406H47.4717V8.66406H45.8721V9.16406ZM47.2217 8.91406V17H47.7217V8.91406H47.2217ZM47.4717 16.75H45.8721V17.25H47.4717V16.75ZM55.1182 4.72168V4.47168H54.8682V4.72168H55.1182ZM56.7266 4.72168H56.9766V4.47168H56.7266V4.72168ZM56.7266 17V17.25H56.9766V17H56.7266ZM50.4424 15.8662L50.26 16.0372L50.2607 16.038L50.4424 15.8662ZM50.4951 9.88965L50.3163 9.71493L50.3156 9.71563L50.4951 9.88965ZM55.1182 9.08105L55.0333 9.31619L55.3682 9.43713V9.08105H55.1182ZM55.1182 15.6289V15.8789H55.3682V15.6289H55.1182ZM55.1182 10.5049H55.3682V10.3512L55.231 10.2818L55.1182 10.5049ZM51.6992 10.9092L51.5143 10.7409L51.5133 10.7421L51.6992 10.9092ZM51.6113 14.9434L51.4263 15.1115L51.4267 15.1119L51.6113 14.9434ZM55.1182 4.97168H56.7266V4.47168H55.1182V4.97168ZM56.4766 4.72168V17H56.9766V4.72168H56.4766ZM56.7266 16.75H53.3076V17.25H56.7266V16.75ZM53.3076 16.75C52.1698 16.75 51.2845 16.3928 50.624 15.6944L50.2607 16.038C51.03 16.8514 52.0548 17.25 53.3076 17.25V16.75ZM50.6247 15.6952C49.9686 14.9957 49.6289 14.0483 49.6289 12.8252H49.1289C49.1289 14.145 49.4982 15.225 50.26 16.0372L50.6247 15.6952ZM49.6289 12.8252C49.6289 11.6927 49.981 10.7792 50.6746 10.0637L50.3156 9.71563C49.521 10.5353 49.1289 11.5788 49.1289 12.8252H49.6289ZM50.6739 10.0644C51.3728 9.34909 52.2615 8.98828 53.3604 8.98828V8.48828C52.1389 8.48828 51.1174 8.89505 50.3163 9.71493L50.6739 10.0644ZM53.3604 8.98828C53.8643 8.98828 54.4212 9.09517 55.0333 9.31619L55.2031 8.84592C54.5495 8.60991 53.9345 8.48828 53.3604 8.48828V8.98828ZM55.3682 9.08105V4.72168H54.8682V9.08105H55.3682ZM55.3682 15.6289V10.5049H54.8682V15.6289H55.3682ZM55.231 10.2818C54.7014 10.0139 54.159 9.87695 53.6064 9.87695V10.377C54.0734 10.377 54.5389 10.492 55.0053 10.728L55.231 10.2818ZM53.6064 9.87695C52.7493 9.87695 52.0427 10.1603 51.5143 10.7409L51.8841 11.0775C52.3049 10.6151 52.8698 10.377 53.6064 10.377V9.87695ZM51.5133 10.7421C50.9933 11.3205 50.7461 12.0888 50.7461 13.0186H51.2461C51.2461 12.1788 51.4676 11.5408 51.8851 11.0763L51.5133 10.7421ZM50.7461 13.0186C50.7461 13.8899 50.9611 14.5998 51.4263 15.1115L51.7963 14.7752C51.4412 14.3846 51.2461 13.8113 51.2461 13.0186H50.7461ZM51.4267 15.1119C51.6941 15.4048 51.9888 15.6146 52.313 15.7249L52.4741 15.2516C52.2475 15.1745 52.0208 15.021 51.7959 14.7748L51.4267 15.1119ZM52.313 15.7249C52.6319 15.8335 53.1651 15.8789 53.8789 15.8789V15.3789C53.163 15.3789 52.706 15.3306 52.4741 15.2516L52.313 15.7249ZM53.8789 15.8789H55.1182V15.3789H53.8789V15.8789ZM59.0732 7.12109L58.8937 7.29515L58.8965 7.29787L59.0732 7.12109ZM59.0732 5.80273L59.25 5.97953L59.2527 5.97677L59.0732 5.80273ZM58.9326 8.91406V8.66406H58.6826V8.91406H58.9326ZM60.5322 8.91406H60.7822V8.66406H60.5322V8.91406ZM60.5322 17V17.25H60.7822V17H60.5322ZM58.9326 17H58.6826V17.25H58.9326V17ZM59.7236 5.7627C59.9231 5.7627 60.0861 5.82876 60.2264 5.96472L60.5743 5.6056C60.3397 5.37827 60.0515 5.2627 59.7236 5.2627V5.7627ZM60.2264 5.96472C60.3648 6.09873 60.4316 6.25637 60.4316 6.45312H60.9316C60.9316 6.12254 60.811 5.83486 60.5743 5.6056L60.2264 5.96472ZM60.4316 6.45312C60.4316 6.64255 60.3657 6.80221 60.2236 6.94432L60.5772 7.29787C60.8101 7.06498 60.9316 6.77933 60.9316 6.45312H60.4316ZM60.2236 6.94432C60.0827 7.08523 59.9206 7.15234 59.7236 7.15234V7.65234C60.054 7.65234 60.3431 7.53196 60.5772 7.29787L60.2236 6.94432ZM59.7236 7.15234C59.5493 7.15234 59.3946 7.08895 59.25 6.94432L58.8965 7.29787C59.1268 7.52824 59.4058 7.65234 59.7236 7.65234V7.15234ZM59.2527 6.94706C59.107 6.79679 59.042 6.63533 59.042 6.45312H58.542C58.542 6.77483 58.6645 7.05867 58.8938 7.29513L59.2527 6.94706ZM59.042 6.45312C59.042 6.27881 59.1054 6.12414 59.25 5.97951L58.8965 5.62596C58.6661 5.85633 58.542 6.13526 58.542 6.45312H59.042ZM59.2527 5.97677C59.398 5.8269 59.5519 5.7627 59.7236 5.7627V5.2627C59.4031 5.2627 59.1234 5.39185 58.8938 5.6287L59.2527 5.97677ZM58.9326 9.16406H60.5322V8.66406H58.9326V9.16406ZM60.2822 8.91406V17H60.7822V8.91406H60.2822ZM60.5322 16.75H58.9326V17.25H60.5322V16.75ZM59.1826 17V8.91406H58.6826V17H59.1826ZM69.7871 10.0918L69.6123 10.2705L69.6129 10.2711L69.7871 10.0918ZM69.7695 15.9893L69.9397 16.1724L69.9404 16.1718L69.7695 15.9893ZM63.6084 15.9717L63.4349 16.1517L63.4356 16.1523L63.6084 15.9717ZM63.6172 10.083L63.7901 10.2636L63.7901 10.2636L63.6172 10.083ZM64.7598 14.917L64.5851 15.0958L64.5862 15.0969L64.7598 14.917ZM68.627 14.9082L68.8027 15.086L68.8027 15.086L68.627 14.9082ZM66.7197 9.14648C67.8906 9.14648 68.8485 9.52319 69.6123 10.2705L69.9619 9.9131C69.0968 9.06665 68.0098 8.64648 66.7197 8.64648V9.14648ZM69.6129 10.2711C70.3759 11.0121 70.7588 11.9421 70.7588 13.0801H71.2588C71.2588 11.8157 70.8273 10.7535 69.9613 9.91246L69.6129 10.2711ZM70.7588 13.0801C70.7588 14.1793 70.3727 15.0822 69.5987 15.8068L69.9404 16.1718C70.8188 15.3495 71.2588 14.3129 71.2588 13.0801H70.7588ZM69.5994 15.8061C68.8248 16.5258 67.8478 16.8906 66.6494 16.8906V17.3906C67.9588 17.3906 69.062 16.9879 69.9397 16.1724L69.5994 15.8061ZM66.6494 16.8906C65.4955 16.8906 64.5454 16.5222 63.7812 15.791L63.4356 16.1523C64.3003 16.9797 65.3775 17.3906 66.6494 17.3906V16.8906ZM63.7819 15.7917C63.0183 15.0555 62.6367 14.1429 62.6367 13.0361H62.1367C62.1367 14.2732 62.5696 15.3175 63.4349 16.1517L63.7819 15.7917ZM62.6367 13.0361C62.6367 11.9175 63.0213 10.9994 63.7901 10.2636L63.4443 9.9024C62.5724 10.7369 62.1367 11.7876 62.1367 13.0361H62.6367ZM63.7901 10.2636C64.5655 9.52115 65.5359 9.14648 66.7197 9.14648V8.64648C65.4192 8.64648 64.3212 9.06283 63.4443 9.90243L63.7901 10.2636ZM66.6318 10.0879C65.8036 10.0879 65.107 10.3624 64.5633 10.9191L64.921 11.2684C65.3617 10.8173 65.9249 10.5879 66.6318 10.5879V10.0879ZM64.5633 10.9191C64.0205 11.4748 63.7539 12.1816 63.7539 13.0186H64.2539C64.2539 12.297 64.4795 11.7205 64.921 11.2684L64.5633 10.9191ZM63.7539 13.0186C63.7539 13.852 64.028 14.5518 64.5851 15.0958L64.9345 14.7381C64.4837 14.2979 64.2539 13.7319 64.2539 13.0186H63.7539ZM64.5862 15.0969C65.1428 15.6341 65.8555 15.8965 66.7021 15.8965V15.3965C65.9668 15.3965 65.3845 15.1725 64.9334 14.7371L64.5862 15.0969ZM66.7021 15.8965C67.5444 15.8965 68.252 15.6302 68.8027 15.086L68.4512 14.7304C68.0058 15.1705 67.4302 15.3965 66.7021 15.3965V15.8965ZM68.8027 15.086C69.3587 14.5365 69.6328 13.8345 69.6328 13.001H69.1328C69.1328 13.7144 68.903 14.2839 68.4512 14.7304L68.8027 15.086ZM69.6328 13.001C69.6328 12.17 69.3476 11.468 68.7743 10.914L68.4269 11.2735C68.8965 11.7273 69.1328 12.2968 69.1328 13.001H69.6328ZM68.7743 10.914C68.2018 10.3607 67.4812 10.0879 66.6318 10.0879V10.5879C67.3645 10.5879 67.9564 10.819 68.4269 11.2735L68.7743 10.914Z" fill="black"/>
</svg>
